<?xml version="1.0" encoding="utf-8"?>
<!-- Generator: Adobe Illustrator 24.1.1, SVG Export Plug-In . SVG Version: 6.00 Build 0)  -->
<svg version="1.1" id="Layer_1" xmlns="http://www.w3.org/2000/svg" xmlns:xlink="http://www.w3.org/1999/xlink" x="0px" y="0px"
	 viewBox="0 0 612 792" style="enable-background:new 0 0 612 792;" xml:space="preserve">
<style type="text/css">
	.st0{fill:#FFFFFF;stroke:#001E43;stroke-width:10;stroke-miterlimit:10;}
	.st1{fill:#1E96BD;}
	.st2{fill:#68CCEA;}
	.st3{fill:#3A3B3A;}
</style>
<g id="Layer_6">
	<g>
		<path class="st0" d="M524.1,230.7c-7.2-8.2-13.9-17-21.5-24.4c-9.6-9.3-19.8-18.4-30.5-26.6c-26.5-20.1-55.6-34.9-87.5-44.2
			c-20.2-5.9-40.8-10.1-61.6-11c-18.8-0.8-37.7-0.8-56.3,2c-29.4,4.2-57.6,12.8-84.2,25.8c-16.5,8.1-32.2,17.9-46.8,29.3
			c-14.9,11.5-28.5,24.1-40.8,38.4c-21.3,24.7-37.8,52.3-49.5,82.8c-11.8,30.8-17.6,62.7-18.2,95.6c-0.2,6.4,0,12.9,0.8,19.3
			c1.6,14,2.8,28.2,5.4,42c3.7,20.1,10.4,39.2,19,57.7c8.9,19.5,19.8,37.5,32.7,54.3c12.5,16.2,26.6,30.7,42.2,43.9
			c21.5,18.1,45.1,32.4,71,43.1c21,8.7,42.8,14.6,65.4,18.2c21,3.3,42.2,3.9,63.3,2.3c23.8-1.7,47-6.5,69.7-14.5
			c20.4-7.2,40-16.2,58.1-28.2c11-7.5,21.6-15.7,32.2-24c13.4-10.4,24.6-23,35.2-36.1c14.6-18.1,26.6-37.8,36.4-59
			c6.8-14.6,12-29.9,16-45.4c4.8-17.9,7.8-36.1,8.4-54.6c0.6-19,0.3-37.8-2.6-56.6c-4.2-26.9-11.8-52.6-23.3-77.2
			C547.8,264.6,537,247.3,524.1,230.7z"/>
	</g>
</g>
<g id="Layer_7">
	<path class="st1" d="M278.5,492.4c4.5,0.3,7.3,2,7.9,6.2c0.5,3.9-1.7,6.2-4.8,8.1c-12.5,7.3-24.9,14.8-37.4,22.1
		c-6.5,3.7-7,8.2-0.6,12c17.7,10.6,35.6,20.7,53.4,31.1c2.6,1.6,4.8,0.9,7.2-0.5c11.7-6.8,23.3-13.5,34.9-20.4
		c5.8-3.4,11.7-6.5,17.4-10.1c6.7-4.2,6.2-8.4-0.5-12.3c-18.8-10.9-37.7-21.9-56.5-33c-4.7-2.6-6.5-6.7-6.2-12
		c0.2-3.3,1.2-5.9,4.7-6.8s6.7,0,8.1,3.3c1.4,3.4,4.2,5,7.2,6.7c18.7,10.6,37.2,21,55.7,31.9c11.8,7,10.4,26-2.8,33.9
		c-11.8,7.2-24,13.9-36,20.9c-6.1,3.4-12.1,6.7-18.1,10.3c-7.9,4.8-15.9,4.7-23.7,0.2c-17.9-10.1-35.8-20.2-53.5-30.8
		c-15.4-9.2-15.1-27.5,0.3-36.4C249.4,508.6,263.3,499.7,278.5,492.4z"/>
	<path class="st1" d="M232.8,616.9c-7.8-6.2-10.1-12.8-7.6-21.2c15.9,9.2,31.7,18.4,47.6,27.5c7.3,4.2,14.8,8.4,22.3,12.8
		c3.7,2.2,7,2,10.6-0.2c20.4-11.8,40.9-23.7,61.3-35.5c2.5-1.4,5-3.1,7.5-4.8c4.2,6.4,0.8,16.7-7.5,21.5
		c-12.6,7.6-25.4,14.8-38,22.3c-4.7,2.6-9.5,5-13.9,8.1c-11,8.1-21.5,5.6-31.9-0.6C266.5,636.9,249.9,627.1,232.8,616.9z"/>
	<path class="st1" d="M300,594.5c6.4-1.4,11-5.3,16.2-8.1c17-9.5,33.6-19.5,50.6-28.9c2.8-1.6,4.5-4.5,7.8-5.1
		c3.7,5,1.6,14.5-4.8,19.8c-2.3,1.9-4.8,3.4-7.5,5c-16.5,9.5-33.1,18.8-49.5,28.5c-8.2,4.8-16.3,5.1-24.7,0.2
		c-17.3-10.1-34.7-20.1-52.1-29.9c-7.2-4-11.2-9.8-12.3-17.9c-0.3-2-0.6-3.9,2-6.2c4.4,4.5,10.3,7.2,15.7,10.4
		c17.7,10.1,35.3,20.4,53.1,30.5C296.1,593.1,297.8,593.7,300,594.5z"/>
	<path class="st1" d="M353.5,603.4c-14.5,8.2-28.6,16.3-42.6,24.4c-7.5,4.4-14.6,3.9-21.9-0.3c-18.2-10.6-36.4-21-54.5-31.6
		c-8.6-5.1-11.2-11.7-9.2-22.7c6.1,4.5,12.5,7.9,18.7,11.5c17.1,9.8,34.4,19.8,51.5,29.7c3.6,2,6.7,1.7,10-0.3
		c22.4-13.5,45.8-25.5,67.5-39.8c0.6-0.3,1.4-0.5,2-0.6c2.8,8.2-0.6,17.3-8.4,21.9C362.4,598.4,358,600.7,353.5,603.4z"/>
	<g>
		<g>
			<path class="st2" d="M245.4,536.6c1.1-3.3,3.7-4.5,6.1-5.9c13.2-7.6,26.5-15.1,39.7-22.6c5.3-3,11.4-3.1,16.7-0.3
				c14,7.6,27.9,15.7,41.7,23.7c2.2,1.2,4.5,2.5,5.3,5.6c-3.4,3.4-6.8,5.3-12,2.6c-10.7-5.4-21.3-11.4-31.4-17.9
				c-9.5-6.1-12.9-5.9-22.6,0c-10.1,6.2-20.7,11.5-31,17.7C252.7,543,248.9,541.3,245.4,536.6z"/>
			<path class="st2" d="M278.2,549.7c-5.9,4-10.7,2.2-15.6-1.9c3.3-4.4,7.8-6.7,12-8.7c4.7-2.3,9-5,13.4-7.6
				c8.9-5.3,17.1-4.8,25.5,0.8c5.9,3.9,12.3,7.2,18.4,10.9c1.7,0.9,3.6,1.9,4.4,4.4c-3.7,3.7-7.6,5.9-13.2,2.6
				c-4.7-2.6-9.6-4.7-13.9-7.8c-6.1-4.5-12-4.2-18.1,0C287.1,545.2,283.2,548,278.2,549.7z"/>
			<path class="st2" d="M286.9,562.6c-1.9-1.4-4-1.7-5-3.7c7.9-12.9,24.1-13.2,36.6-0.5c-3.4,3-6.4,6.4-11.5,3.9
				c-4.8-2.3-9.5-2.6-14,0.3C291.1,564,289.3,563.9,286.9,562.6z"/>
		</g>
	</g>
	<g>
		<g>
			<path class="st3" d="M275.4,476.7"/>
			<path class="st3" d="M284.3,436.2c0-7,0.9-5.1-7.9-5.6c-6.5-0.3-12.9-0.3-19.5,0c-3.1,0.2-4.2-0.3-4.2-3.3c0.2-17.4,0-35,0-52.4
				c0-2-1.6-3.6-3.6-3.6c-42.5,0-85-0.2-127.3,0.2c-7.5,0-14.2-2.6-15.9-10.9c0-0.2-0.3-0.2-0.6-0.3c-0.2-1.1-0.2-2-0.2-3.4
				c0.3-0.8,0.8-1.1,0.9-1.7c1.7-6.1,6.2-9.6,12.6-9.6c42.8,0,85.6,0,128.4,0c0.9,0,1.9-0.2,2.8,0c2.3,0.3,3.1-0.8,3-3
				c0-17,0-33.8,0-50.7c0-6.5-0.8-5.6,5.6-5.6c28.2,0,56.3,0,84.5,0c3.7,0,3.7,0,3.7,3.7c0,17.3,0,34.7,0,52c0,3.6,0,3.6,3.7,3.6
				c42.3,0,84.7,0.2,127-0.2c7.3,0,12.8,1.9,16.2,8.7c0.2,2.8,0.2,5.4,0.2,8.4c-0.8,1.2-1.7,2.5-2.5,3.4c-3,3.6-6.7,5.4-11.5,5.4
				c-42.8,0-85.8,0-128.6,0c-5,0-4.5-0.5-4.5,4.5c0,17.1,0,34.4,0,51.5c0,3.4,0,3.4-3.4,3.4c-8.2,0-16.3,0-24.6,0
				c-2.3,0-3.1,0.8-3,3.1c0.2,4.7,0,9.3,0,14c0,8.6-3.7,14.3-12.5,17.6c-12,0.8-14.6-4.4-14.6-4.4c-5-4.5-4.5-10.1-4.5-15.6
				L284.3,436.2z"/>
			<path class="st3" d="M418.9,190.2c0.2,8.1,0.6,16.3-1.7,24.4c-2.2,7.5-5.9,13.9-12.5,18.4c-0.3,0.2-0.6,0.6-0.8,1.4
				c1.9-0.2,3.6-0.3,5.4-0.5c6.8-0.8,13.5-2.2,19.5-5.8c6.7-4,10.3-10.1,11.5-17.6c0.6-3.9,0.9-8.1,1.1-12c0-2.2,0.5-3.4,2.8-3.3
				c1.1,0,2.3-0.5,3.4-0.2c0.6,0.2,1.7,1.1,1.7,1.7c0.3,6.7,0.3,13.5-1.7,20.1c-3.6,11-10.9,18.4-21.8,22.3
				c-7.6,2.6-15.6,3.9-23.5,4c-11.4,0.2-22.9,0-34.2,0c-5.6,0-11-0.3-16.7,0c-8.7,0.5-17.4,1.6-25.5,5.6
				c-10.1,5-14.9,13.5-16.5,24.4c-0.3,2.8-0.5,5.6-0.5,8.2c0,1.6-0.6,2.3-2.3,2.2c-2.2,0-4.4,0.2-6.5-0.2c-0.6,0-1.7-0.9-1.7-1.6
				c-0.5-11,1.1-21.8,7.2-31.3c6.2-9.6,15.6-14.5,26.6-16.2c6.5-1.1,13.2-1.2,19.9-1.6c7.6-0.3,15.4-0.2,23-0.6
				c7.2-0.5,14.2-1.1,20.9-4.4c8.6-4,12.6-11.4,14-20.2c0.5-3.6,0.6-7.5,0.5-11c0-2.8-0.2-5.4,3.6-6.1
				C415.6,190.2,417.2,190.2,418.9,190.2z"/>
			<path class="st3" d="M233.5,297.9c3-3.3,6.8-4.2,10.7-4.7c1.6-0.2,2.3,0.5,2.3,2.2c0,7.9,0,15.7,0,23.7c0,1.7-0.8,2.2-2.3,2.2
				c-5.1-0.2-9.2-2-12-6.4c-3-4.8-3-9.8-0.2-14.8C232.6,299.3,233.1,298.7,233.5,297.9z"/>
			<path class="st3" d="M352.1,293.4c1.1,0.2,2.3,0.3,3.4,0.5c5.6,0.5,10.9,6.1,11.2,11.7c0.3,6.8-2,11.8-8.4,14.5
				c-2,0.8-4.2,0.8-6.5,0.9c-0.2-7.3-0.2-14.2-0.3-21.2c0-1.6-0.5-3.1-0.8-4.7c-0.2-0.2-0.2-0.3,0.2-0.6
				C351.5,293.8,351.8,293.5,352.1,293.4z"/>
			<path class="st3" d="M350.7,295.1c0.5,1.4,0.9,3,0.9,4.5c0.2,7,0,14,0,21.2c-0.5-0.2-1.4-0.6-1.4-1.1c0-8.1,0.2-16.2,0.2-24.3
				C350.4,295.4,350.6,295.2,350.7,295.1z"/>
			<path class="st3" d="M352,293.4c-0.2,0.3-0.5,0.6-0.9,0.9C351.4,294,351.5,293.7,352,293.4z"/>
		</g>
	</g>
</g>
</svg>
