<?xml version="1.0" encoding="utf-8"?>
<!-- Generator: Adobe Illustrator 24.1.1, SVG Export Plug-In . SVG Version: 6.00 Build 0)  -->
<svg version="1.1" xmlns="http://www.w3.org/2000/svg" xmlns:xlink="http://www.w3.org/1999/xlink" x="0px" y="0px"
	 viewBox="0 0 612 792" style="enable-background:new 0 0 612 792;" xml:space="preserve">
<style type="text/css">
	.st0{fill:#FFFFFF;stroke:#001E43;stroke-width:10;stroke-miterlimit:10;}
	.st1{fill:#1E96BD;}
	.st2{fill:#68CCEA;}
	.st3{fill:#3A3B3A;}
</style>
<g id="Layer_6">
	<g>
		<path class="st0" d="M408.9,272.4c-4.6-5.3-8.9-10.9-13.8-15.7c-6.2-6-12.7-11.8-19.6-17.1c-17-12.9-35.7-22.4-56.2-28.4
			c-13-3.8-26.2-6.5-39.6-7.1c-12.1-0.5-24.2-0.5-36.2,1.3c-18.9,2.7-37,8.2-54.1,16.6c-10.6,5.2-20.7,11.5-30.1,18.8
			c-9.6,7.4-18.3,15.5-26.2,24.7c-13.7,15.9-24.3,33.6-31.8,53.2c-7.6,19.8-11.3,40.3-11.7,61.4c-0.1,4.1,0,8.3,0.5,12.4
			c1,9,1.8,18.1,3.5,27c2.4,12.9,6.7,25.2,12.2,37.1c5.7,12.5,12.7,24.1,21,34.9c8,10.4,17.1,19.7,27.1,28.2
			c13.8,11.6,29,20.8,45.6,27.7c13.5,5.6,27.5,9.4,42,11.7c13.5,2.1,27.1,2.5,40.7,1.5c15.3-1.1,30.2-4.2,44.8-9.3
			c13.1-4.6,25.7-10.4,37.3-18.1c7.1-4.8,13.9-10.1,20.7-15.4c8.6-6.7,15.8-14.8,22.6-23.2c9.4-11.6,17.1-24.3,23.4-37.9
			c4.4-9.4,7.7-19.2,10.3-29.2c3.1-11.5,5-23.2,5.4-35.1c0.4-12.2,0.2-24.3-1.7-36.4c-2.7-17.3-7.6-33.8-15-49.6
			C424.1,294.2,417.2,283.1,408.9,272.4z"/>
	</g>
</g>
<g id="Layer_7">
	<path class="st1" d="M251.1,440.6c2.9,0.2,4.7,1.3,5.1,4c0.3,2.5-1.1,4-3.1,5.2c-8,4.7-16,9.5-24,14.2c-4.2,2.4-4.5,5.3-0.4,7.7
		c11.4,6.8,22.9,13.3,34.3,20c1.7,1,3.1,0.6,4.6-0.3c7.5-4.4,15-8.7,22.4-13.1c3.7-2.2,7.5-4.2,11.2-6.5c4.3-2.7,4-5.4-0.3-7.9
		c-12.1-7-24.2-14.1-36.3-21.2c-3-1.7-4.2-4.3-4-7.7c0.1-2.1,0.8-3.8,3-4.4c2.2-0.6,4.3,0,5.2,2.1c0.9,2.2,2.7,3.2,4.6,4.3
		c12,6.8,23.9,13.5,35.8,20.5c7.6,4.5,6.7,16.7-1.8,21.8c-7.6,4.6-15.4,8.9-23.1,13.4c-3.9,2.2-7.8,4.3-11.6,6.6
		c-5.1,3.1-10.2,3-15.2,0.1c-11.5-6.5-23-13-34.4-19.8c-9.9-5.9-9.7-17.7,0.2-23.4C232.4,451,241.3,445.3,251.1,440.6z"/>
	<path class="st1" d="M221.7,520.6c-5-4-6.5-8.2-4.9-13.6c10.2,5.9,20.4,11.8,30.6,17.7c4.7,2.7,9.5,5.4,14.3,8.2
		c2.4,1.4,4.5,1.3,6.8-0.1c13.1-7.6,26.3-15.2,39.4-22.8c1.6-0.9,3.2-2,4.8-3.1c2.7,4.1,0.5,10.7-4.8,13.8
		c-8.1,4.9-16.3,9.5-24.4,14.3c-3,1.7-6.1,3.2-8.9,5.2c-7.1,5.2-13.8,3.6-20.5-0.4C243.4,533.4,232.7,527.1,221.7,520.6z"/>
	<path class="st1" d="M264.9,506.2c4.1-0.9,7.1-3.4,10.4-5.2c10.9-6.1,21.6-12.5,32.5-18.6c1.8-1,2.9-2.9,5-3.3
		c2.4,3.2,1,9.3-3.1,12.7c-1.5,1.2-3.1,2.2-4.8,3.2c-10.6,6.1-21.3,12.1-31.8,18.3c-5.3,3.1-10.5,3.3-15.9,0.1
		c-11.1-6.5-22.3-12.9-33.5-19.2c-4.6-2.6-7.2-6.3-7.9-11.5c-0.2-1.3-0.4-2.5,1.3-4c2.8,2.9,6.6,4.6,10.1,6.7
		c11.4,6.5,22.7,13.1,34.1,19.6C262.4,505.3,263.5,505.7,264.9,506.2z"/>
	<path class="st1" d="M299.3,511.9c-9.3,5.3-18.4,10.5-27.4,15.7c-4.8,2.8-9.4,2.5-14.1-0.2c-11.7-6.8-23.4-13.5-35-20.3
		c-5.5-3.3-7.2-7.5-5.9-14.6c3.9,2.9,8,5.1,12,7.4c11,6.3,22.1,12.7,33.1,19.1c2.3,1.3,4.3,1.1,6.4-0.2
		c14.4-8.7,29.4-16.4,43.4-25.6c0.4-0.2,0.9-0.3,1.3-0.4c1.8,5.3-0.4,11.1-5.4,14.1C305,508.7,302.2,510.2,299.3,511.9z"/>
	<g>
		<g>
			<path class="st2" d="M229.8,469c0.7-2.1,2.4-2.9,3.9-3.8c8.5-4.9,17-9.7,25.5-14.5c3.4-1.9,7.3-2,10.7-0.2
				c9,4.9,17.9,10.1,26.8,15.2c1.4,0.8,2.9,1.6,3.4,3.6c-2.2,2.2-4.4,3.4-7.7,1.7c-6.9-3.5-13.7-7.3-20.2-11.5
				c-6.1-3.9-8.3-3.8-14.5,0c-6.5,4-13.3,7.4-19.9,11.4C234.5,473.1,232.1,472,229.8,469z"/>
			<path class="st2" d="M250.9,477.4c-3.8,2.6-6.9,1.4-10-1.2c2.1-2.8,5-4.3,7.7-5.6c3-1.5,5.8-3.2,8.6-4.9c5.7-3.4,11-3.1,16.4,0.5
				c3.8,2.5,7.9,4.6,11.8,7c1.1,0.6,2.3,1.2,2.8,2.8c-2.4,2.4-4.9,3.8-8.5,1.7c-3-1.7-6.2-3-8.9-5c-3.9-2.9-7.7-2.7-11.6,0
				C256.6,474.5,254.1,476.3,250.9,477.4z"/>
			<path class="st2" d="M256.5,485.7c-1.2-0.9-2.6-1.1-3.2-2.4c5.1-8.3,15.5-8.5,23.5-0.3c-2.2,1.9-4.1,4.1-7.4,2.5
				c-3.1-1.5-6.1-1.7-9,0.2C259.2,486.6,258,486.5,256.5,485.7z"/>
		</g>
	</g>
	<g>
		<g>
			<path class="st3" d="M249.1,430.5"/>
			<path class="st3" d="M254.8,404.5c0-4.5,0.6-3.3-5.1-3.6c-4.2-0.2-8.3-0.2-12.5,0c-2,0.1-2.7-0.2-2.7-2.1c0.1-11.2,0-22.5,0-33.7
				c0-1.3-1-2.3-2.3-2.3c-27.3,0-54.6-0.1-81.8,0.1c-4.8,0-9.1-1.7-10.2-7c0-0.1-0.2-0.1-0.4-0.2c-0.1-0.7-0.1-1.3-0.1-2.2
				c0.2-0.5,0.5-0.7,0.6-1.1c1.1-3.9,4-6.2,8.1-6.2c27.5,0,55,0,82.5,0c0.6,0,1.2-0.1,1.8,0c1.5,0.2,2-0.5,1.9-1.9
				c0-10.9,0-21.7,0-32.6c0-4.2-0.5-3.6,3.6-3.6c18.1,0,36.2,0,54.3,0c2.4,0,2.4,0,2.4,2.4c0,11.1,0,22.3,0,33.4
				c0,2.3,0,2.3,2.4,2.3c27.2,0,54.4,0.1,81.6-0.1c4.7,0,8.2,1.2,10.4,5.6c0.1,1.8,0.1,3.5,0.1,5.4c-0.5,0.8-1.1,1.6-1.6,2.2
				c-1.9,2.3-4.3,3.5-7.4,3.5c-27.5,0-55.1,0-82.6,0c-3.2,0-2.9-0.3-2.9,2.9c0,11,0,22.1,0,33.1c0,2.2,0,2.2-2.2,2.2
				c-5.3,0-10.5,0-15.8,0c-1.5,0-2,0.5-1.9,2c0.1,3,0,6,0,9c0,5.5-2.4,9.2-8,11.3c-7.7,0.5-9.4-2.8-9.4-2.8c-3.2-2.9-2.9-6.5-2.9-10
				L254.8,404.5z"/>
			<path class="st3" d="M341.3,246.4c0.1,5.2,0.4,10.5-1.1,15.7c-1.4,4.8-3.8,8.9-8,11.8c-0.2,0.1-0.4,0.4-0.5,0.9
				c1.2-0.1,2.3-0.2,3.5-0.3c4.4-0.5,8.7-1.4,12.5-3.7c4.3-2.6,6.6-6.5,7.4-11.3c0.4-2.5,0.6-5.2,0.7-7.7c0-1.4,0.3-2.2,1.8-2.1
				c0.7,0,1.5-0.3,2.2-0.1c0.4,0.1,1.1,0.7,1.1,1.1c0.2,4.3,0.2,8.7-1.1,12.9c-2.3,7.1-7,11.8-14,14.3c-4.9,1.7-10,2.5-15.1,2.6
				c-7.3,0.1-14.7,0-22,0c-3.6,0-7.1-0.2-10.7,0c-5.6,0.3-11.2,1-16.4,3.6c-6.5,3.2-9.6,8.7-10.6,15.7c-0.2,1.8-0.3,3.6-0.3,5.3
				c0,1-0.4,1.5-1.5,1.4c-1.4,0-2.8,0.1-4.2-0.1c-0.4,0-1.1-0.6-1.1-1c-0.3-7.1,0.7-14,4.6-20.1c4-6.2,10-9.3,17.1-10.4
				c4.2-0.7,8.5-0.8,12.8-1c4.9-0.2,9.9-0.1,14.8-0.4c4.6-0.3,9.1-0.7,13.4-2.8c5.5-2.6,8.1-7.3,9-13c0.3-2.3,0.4-4.8,0.3-7.1
				c0-1.8-0.1-3.5,2.3-3.9C339.2,246.4,340.2,246.4,341.3,246.4z"/>
			<path class="st3" d="M222.2,315.6c1.9-2.1,4.4-2.7,6.9-3c1-0.1,1.5,0.3,1.5,1.4c0,5.1,0,10.1,0,15.2c0,1.1-0.5,1.4-1.5,1.4
				c-3.3-0.1-5.9-1.3-7.7-4.1c-1.9-3.1-1.9-6.3-0.1-9.5C221.6,316.5,221.9,316.1,222.2,315.6z"/>
			<path class="st3" d="M298.4,312.7c0.7,0.1,1.5,0.2,2.2,0.3c3.6,0.3,7,3.9,7.2,7.5c0.2,4.4-1.3,7.6-5.4,9.3
				c-1.3,0.5-2.7,0.5-4.2,0.6c-0.1-4.7-0.1-9.1-0.2-13.6c0-1-0.3-2-0.5-3c-0.1-0.1-0.1-0.2,0.1-0.4C298,313,298.2,312.8,298.4,312.7
				z"/>
			<path class="st3" d="M297.5,313.8c0.3,0.9,0.6,1.9,0.6,2.9c0.1,4.5,0,9,0,13.6c-0.3-0.1-0.9-0.4-0.9-0.7c0-5.2,0.1-10.4,0.1-15.6
				C297.3,314,297.4,313.9,297.5,313.8z"/>
			<path class="st3" d="M298.3,312.7c-0.1,0.2-0.3,0.4-0.6,0.6C297.9,313.1,298,312.9,298.3,312.7z"/>
		</g>
	</g>
</g>
</svg>
